<?xml version="1.0" encoding="UTF-8" standalone="no"?>
<!DOCTYPE svg PUBLIC "-//W3C//DTD SVG 1.1//EN"
 "http://www.w3.org/Graphics/SVG/1.1/DTD/svg11.dtd">
<!-- Generated by graphviz version 2.46.1 (0)
 -->
<!-- Title: snakemake_dag Pages: 1 -->
<svg width="147pt" height="260pt"
 viewBox="0.00 0.00 147.00 260.00" xmlns="http://www.w3.org/2000/svg" xmlns:xlink="http://www.w3.org/1999/xlink">
<g id="graph0" class="graph" transform="scale(1 1) rotate(0) translate(4 256)">
<title>snakemake_dag</title>
<polygon fill="white" stroke="transparent" points="-4,4 -4,-256 143,-256 143,4 -4,4"/>
<!-- 0 -->
<g id="node1" class="node">
<title>0</title>
<path fill="none" stroke="#d6d856" stroke-width="2" d="M84.5,-36C84.5,-36 54.5,-36 54.5,-36 48.5,-36 42.5,-30 42.5,-24 42.5,-24 42.5,-12 42.5,-12 42.5,-6 48.5,0 54.5,0 54.5,0 84.5,0 84.5,0 90.5,0 96.5,-6 96.5,-12 96.5,-12 96.5,-24 96.5,-24 96.5,-30 90.5,-36 84.5,-36"/>
<text text-anchor="middle" x="69.5" y="-15.5" font-family="sans" font-size="10.00">all</text>
</g>
<!-- 1 -->
<g id="node2" class="node">
<title>1</title>
<path fill="none" stroke="#59d856" stroke-width="2" d="M125.5,-108C125.5,-108 13.5,-108 13.5,-108 7.5,-108 1.5,-102 1.5,-96 1.5,-96 1.5,-84 1.5,-84 1.5,-78 7.5,-72 13.5,-72 13.5,-72 125.5,-72 125.5,-72 131.5,-72 137.5,-78 137.5,-84 137.5,-84 137.5,-96 137.5,-96 137.5,-102 131.5,-108 125.5,-108"/>
<text text-anchor="middle" x="69.5" y="-87.5" font-family="sans" font-size="10.00">index_phased_chrom_bcfs</text>
</g>
<!-- 1&#45;&gt;0 -->
<g id="edge1" class="edge">
<title>1&#45;&gt;0</title>
<path fill="none" stroke="grey" stroke-width="2" d="M69.5,-71.7C69.5,-63.98 69.5,-54.71 69.5,-46.11"/>
<polygon fill="grey" stroke="grey" stroke-width="2" points="73,-46.1 69.5,-36.1 66,-46.1 73,-46.1"/>
</g>
<!-- 2 -->
<g id="node3" class="node">
<title>2</title>
<path fill="none" stroke="#d85656" stroke-width="2" d="M113.5,-180C113.5,-180 25.5,-180 25.5,-180 19.5,-180 13.5,-174 13.5,-168 13.5,-168 13.5,-156 13.5,-156 13.5,-150 19.5,-144 25.5,-144 25.5,-144 113.5,-144 113.5,-144 119.5,-144 125.5,-150 125.5,-156 125.5,-156 125.5,-168 125.5,-168 125.5,-174 119.5,-180 113.5,-180"/>
<text text-anchor="middle" x="69.5" y="-159.5" font-family="sans" font-size="10.00">phase_chromosomes</text>
</g>
<!-- 2&#45;&gt;1 -->
<g id="edge2" class="edge">
<title>2&#45;&gt;1</title>
<path fill="none" stroke="grey" stroke-width="2" d="M69.5,-143.7C69.5,-135.98 69.5,-126.71 69.5,-118.11"/>
<polygon fill="grey" stroke="grey" stroke-width="2" points="73,-118.1 69.5,-108.1 66,-118.1 73,-118.1"/>
</g>
<!-- 3 -->
<g id="node4" class="node">
<title>3</title>
<path fill="none" stroke="#56d8d8" stroke-width="2" d="M127,-252C127,-252 12,-252 12,-252 6,-252 0,-246 0,-240 0,-240 0,-228 0,-228 0,-222 6,-216 12,-216 12,-216 127,-216 127,-216 133,-216 139,-222 139,-228 139,-228 139,-240 139,-240 139,-246 133,-252 127,-252"/>
<text text-anchor="middle" x="69.5" y="-231.5" font-family="sans" font-size="10.00">split_vcf_and_rename_chrs</text>
</g>
<!-- 3&#45;&gt;2 -->
<g id="edge3" class="edge">
<title>3&#45;&gt;2</title>
<path fill="none" stroke="grey" stroke-width="2" d="M69.5,-215.7C69.5,-207.98 69.5,-198.71 69.5,-190.11"/>
<polygon fill="grey" stroke="grey" stroke-width="2" points="73,-190.1 69.5,-180.1 66,-190.1 73,-190.1"/>
</g>
</g>
</svg>
