<?xml version="1.0" encoding="UTF-8" standalone="no"?>
<!DOCTYPE svg PUBLIC "-//W3C//DTD SVG 1.1//EN"
 "http://www.w3.org/Graphics/SVG/1.1/DTD/svg11.dtd">
<!-- Generated by graphviz version 12.0.0 (0)
 -->
<!-- Title: snakemake_dag Pages: 1 -->
<svg width="143pt" height="260pt"
 viewBox="0.00 0.00 143.25 260.00" xmlns="http://www.w3.org/2000/svg" xmlns:xlink="http://www.w3.org/1999/xlink">
<g id="graph0" class="graph" transform="scale(1 1) rotate(0) translate(4 256)">
<title>snakemake_dag</title>
<polygon fill="white" stroke="none" points="-4,4 -4,-256 139.25,-256 139.25,4 -4,4"/>
<!-- 0 -->
<g id="node1" class="node">
<title>0</title>
<path fill="none" stroke="#d6d856" stroke-width="2" d="M82.62,-36C82.62,-36 52.62,-36 52.62,-36 46.62,-36 40.62,-30 40.62,-24 40.62,-24 40.62,-12 40.62,-12 40.62,-6 46.62,0 52.62,0 52.62,0 82.62,0 82.62,0 88.62,0 94.62,-6 94.62,-12 94.62,-12 94.62,-24 94.62,-24 94.62,-30 88.62,-36 82.62,-36"/>
<text text-anchor="middle" x="67.62" y="-14.12" font-family="sans" font-size="10.00">all</text>
</g>
<!-- 1 -->
<g id="node2" class="node">
<title>1</title>
<path fill="none" stroke="#d85656" stroke-width="2" d="M121.75,-108C121.75,-108 13.5,-108 13.5,-108 7.5,-108 1.5,-102 1.5,-96 1.5,-96 1.5,-84 1.5,-84 1.5,-78 7.5,-72 13.5,-72 13.5,-72 121.75,-72 121.75,-72 127.75,-72 133.75,-78 133.75,-84 133.75,-84 133.75,-96 133.75,-96 133.75,-102 127.75,-108 121.75,-108"/>
<text text-anchor="middle" x="67.62" y="-86.12" font-family="sans" font-size="10.00">index_phased_chrom_bcfs</text>
</g>
<!-- 1&#45;&gt;0 -->
<g id="edge1" class="edge">
<title>1&#45;&gt;0</title>
<path fill="none" stroke="grey" stroke-width="2" d="M67.62,-71.34C67.62,-64.75 67.62,-57.08 67.62,-49.67"/>
<polygon fill="grey" stroke="grey" stroke-width="2" points="71.13,-49.93 67.63,-39.93 64.13,-49.93 71.13,-49.93"/>
</g>
<!-- 2 -->
<g id="node3" class="node">
<title>2</title>
<path fill="none" stroke="#59d856" stroke-width="2" d="M110.12,-180C110.12,-180 25.12,-180 25.12,-180 19.12,-180 13.12,-174 13.12,-168 13.12,-168 13.12,-156 13.12,-156 13.12,-150 19.12,-144 25.12,-144 25.12,-144 110.12,-144 110.12,-144 116.12,-144 122.12,-150 122.12,-156 122.12,-156 122.12,-168 122.12,-168 122.12,-174 116.12,-180 110.12,-180"/>
<text text-anchor="middle" x="67.62" y="-158.12" font-family="sans" font-size="10.00">phase_chromosomes</text>
</g>
<!-- 2&#45;&gt;1 -->
<g id="edge2" class="edge">
<title>2&#45;&gt;1</title>
<path fill="none" stroke="grey" stroke-width="2" d="M67.62,-143.34C67.62,-136.75 67.62,-129.08 67.62,-121.67"/>
<polygon fill="grey" stroke="grey" stroke-width="2" points="71.13,-121.93 67.63,-111.93 64.13,-121.93 71.13,-121.93"/>
</g>
<!-- 3 -->
<g id="node4" class="node">
<title>3</title>
<path fill="none" stroke="#56d8d8" stroke-width="2" d="M123.25,-252C123.25,-252 12,-252 12,-252 6,-252 0,-246 0,-240 0,-240 0,-228 0,-228 0,-222 6,-216 12,-216 12,-216 123.25,-216 123.25,-216 129.25,-216 135.25,-222 135.25,-228 135.25,-228 135.25,-240 135.25,-240 135.25,-246 129.25,-252 123.25,-252"/>
<text text-anchor="middle" x="67.62" y="-230.12" font-family="sans" font-size="10.00">split_vcf_and_rename_chrs</text>
</g>
<!-- 3&#45;&gt;2 -->
<g id="edge3" class="edge">
<title>3&#45;&gt;2</title>
<path fill="none" stroke="grey" stroke-width="2" d="M67.62,-215.34C67.62,-208.75 67.62,-201.08 67.62,-193.67"/>
<polygon fill="grey" stroke="grey" stroke-width="2" points="71.13,-193.93 67.63,-183.93 64.13,-193.93 71.13,-193.93"/>
</g>
</g>
</svg>
