<?xml version="1.0" encoding="UTF-8" standalone="no"?>
<!DOCTYPE svg PUBLIC "-//W3C//DTD SVG 1.1//EN"
 "http://www.w3.org/Graphics/SVG/1.1/DTD/svg11.dtd">
<!-- Generated by graphviz version 12.0.0 (0)
 -->
<!-- Title: snakemake_dag Pages: 1 -->
<svg width="124pt" height="260pt"
 viewBox="0.00 0.00 123.75 260.00" xmlns="http://www.w3.org/2000/svg" xmlns:xlink="http://www.w3.org/1999/xlink">
<g id="graph0" class="graph" transform="scale(1 1) rotate(0) translate(4 256)">
<title>snakemake_dag</title>
<polygon fill="white" stroke="none" points="-4,4 -4,-256 119.75,-256 119.75,4 -4,4"/>
<!-- 0 -->
<g id="node1" class="node">
<title>0</title>
<path fill="none" stroke="#d85656" stroke-width="2" d="M72.88,-36C72.88,-36 42.88,-36 42.88,-36 36.88,-36 30.88,-30 30.88,-24 30.88,-24 30.88,-12 30.88,-12 30.88,-6 36.88,0 42.88,0 42.88,0 72.88,0 72.88,0 78.88,0 84.88,-6 84.88,-12 84.88,-12 84.88,-24 84.88,-24 84.88,-30 78.88,-36 72.88,-36"/>
<text text-anchor="middle" x="57.88" y="-14.12" font-family="sans" font-size="10.00">all</text>
</g>
<!-- 1 -->
<g id="node2" class="node">
<title>1</title>
<path fill="none" stroke="#59d856" stroke-width="2" d="M103.75,-108C103.75,-108 12,-108 12,-108 6,-108 0,-102 0,-96 0,-96 0,-84 0,-84 0,-78 6,-72 12,-72 12,-72 103.75,-72 103.75,-72 109.75,-72 115.75,-78 115.75,-84 115.75,-84 115.75,-96 115.75,-96 115.75,-102 109.75,-108 103.75,-108"/>
<text text-anchor="middle" x="57.88" y="-86.12" font-family="sans" font-size="10.00">beagle_concat_phased</text>
</g>
<!-- 1&#45;&gt;0 -->
<g id="edge1" class="edge">
<title>1&#45;&gt;0</title>
<path fill="none" stroke="grey" stroke-width="2" d="M57.88,-71.34C57.88,-64.75 57.88,-57.08 57.88,-49.67"/>
<polygon fill="grey" stroke="grey" stroke-width="2" points="61.38,-49.93 57.88,-39.93 54.38,-49.93 61.38,-49.93"/>
</g>
<!-- 2 -->
<g id="node3" class="node">
<title>2</title>
<path fill="none" stroke="#56d8d8" stroke-width="2" d="M83.88,-180C83.88,-180 31.88,-180 31.88,-180 25.88,-180 19.88,-174 19.88,-168 19.88,-168 19.88,-156 19.88,-156 19.88,-150 25.88,-144 31.88,-144 31.88,-144 83.88,-144 83.88,-144 89.88,-144 95.88,-150 95.88,-156 95.88,-156 95.88,-168 95.88,-168 95.88,-174 89.88,-180 83.88,-180"/>
<text text-anchor="middle" x="57.88" y="-158.12" font-family="sans" font-size="10.00">beagle_phase</text>
</g>
<!-- 2&#45;&gt;1 -->
<g id="edge2" class="edge">
<title>2&#45;&gt;1</title>
<path fill="none" stroke="grey" stroke-width="2" d="M57.88,-143.34C57.88,-136.75 57.88,-129.08 57.88,-121.67"/>
<polygon fill="grey" stroke="grey" stroke-width="2" points="61.38,-121.93 57.88,-111.93 54.38,-121.93 61.38,-121.93"/>
</g>
<!-- 3 -->
<g id="node4" class="node">
<title>3</title>
<path fill="none" stroke="#d6d856" stroke-width="2" d="M85.38,-252C85.38,-252 30.38,-252 30.38,-252 24.37,-252 18.38,-246 18.38,-240 18.38,-240 18.38,-228 18.38,-228 18.38,-222 24.38,-216 30.38,-216 30.38,-216 85.38,-216 85.38,-216 91.38,-216 97.38,-222 97.38,-228 97.38,-228 97.38,-240 97.38,-240 97.38,-246 91.38,-252 85.38,-252"/>
<text text-anchor="middle" x="57.88" y="-230.12" font-family="sans" font-size="10.00">beagle_impute</text>
</g>
<!-- 3&#45;&gt;2 -->
<g id="edge3" class="edge">
<title>3&#45;&gt;2</title>
<path fill="none" stroke="grey" stroke-width="2" d="M57.88,-215.34C57.88,-208.75 57.88,-201.08 57.88,-193.67"/>
<polygon fill="grey" stroke="grey" stroke-width="2" points="61.38,-193.93 57.88,-183.93 54.38,-193.93 61.38,-193.93"/>
</g>
</g>
</svg>
